<svg width="65" height="19" viewBox="0 0 65 19" fill="none" xmlns="http://www.w3.org/2000/svg">
<path d="M64.9134 0.545456L64.4703 12.5455H60.5839L60.1407 0.545456H64.9134ZM62.5271 18.2727C61.868 18.2727 61.3027 18.0426 60.8311 17.5824C60.3652 17.1165 60.135 16.5511 60.1407 15.8864C60.135 15.2386 60.3652 14.6847 60.8311 14.2244C61.3027 13.7642 61.868 13.5341 62.5271 13.5341C63.1521 13.5341 63.7032 13.7642 64.1805 14.2244C64.6634 14.6847 64.9078 15.2386 64.9134 15.8864C64.9078 16.3295 64.7913 16.733 64.564 17.0966C64.3424 17.4545 64.0527 17.7415 63.6947 17.9574C63.3367 18.1676 62.9475 18.2727 62.5271 18.2727Z" fill="black"/>
<path d="M45.3751 18V0.545456H57.6478V4.36364H50.1137V7.36364H56.8978V11.1818H50.1137V18H45.3751Z" fill="black"/>
<path d="M43.1826 9.27273C43.1826 11.2159 42.8048 12.8551 42.0491 14.1903C41.2934 15.5199 40.2735 16.5284 38.9894 17.2159C37.7053 17.8977 36.2735 18.2386 34.694 18.2386C33.1031 18.2386 31.6656 17.8949 30.3815 17.2074C29.1031 16.5142 28.086 15.5028 27.3303 14.1733C26.5803 12.8381 26.2053 11.2046 26.2053 9.27273C26.2053 7.32955 26.5803 5.69319 27.3303 4.36364C28.086 3.02841 29.1031 2.01989 30.3815 1.33807C31.6656 0.650574 33.1031 0.306824 34.694 0.306824C36.2735 0.306824 37.7053 0.650574 38.9894 1.33807C40.2735 2.01989 41.2934 3.02841 42.0491 4.36364C42.8048 5.69319 43.1826 7.32955 43.1826 9.27273ZM38.3076 9.27273C38.3076 8.22728 38.1684 7.3466 37.89 6.63069C37.6173 5.9091 37.211 5.36364 36.6713 4.99432C36.1372 4.61932 35.4781 4.43182 34.694 4.43182C33.9099 4.43182 33.248 4.61932 32.7082 4.99432C32.1741 5.36364 31.7678 5.9091 31.4894 6.63069C31.2167 7.3466 31.0803 8.22728 31.0803 9.27273C31.0803 10.3182 31.2167 11.2017 31.4894 11.9233C31.7678 12.6392 32.1741 13.1847 32.7082 13.5597C33.248 13.929 33.9099 14.1136 34.694 14.1136C35.4781 14.1136 36.1372 13.929 36.6713 13.5597C37.211 13.1847 37.6173 12.6392 37.89 11.9233C38.1684 11.2017 38.3076 10.3182 38.3076 9.27273Z" fill="black"/>
<path d="M5.55691 18L0.40918 0.545456H5.69327L8.07963 11.2841H8.216L11.0455 0.545456H15.2046L18.0342 11.3182H18.1705L20.5569 0.545456H25.841L20.6933 18H16.1592L13.1933 8.25H13.0569L10.091 18H5.55691Z" fill="black"/>
</svg>
