<?xml version="1.0" encoding="UTF-8" standalone="no"?>
<svg
   width="851.12018"
   zoomAndPan="magnify"
   viewBox="0 0 638.34013 189.49169"
   height="252.65558"
   preserveAspectRatio="xMidYMid"
   version="1.0"
   id="svg20"
   xmlns="http://www.w3.org/2000/svg"
   xmlns:svg="http://www.w3.org/2000/svg">
  <defs
     id="defs4">
    <g
       id="g1" />
    <clipPath
       id="f440755532">
      <path
         d="m 669.39844,470.70703 h 70.94922 v 58.96875 h -70.94922 z m 0,0"
         clip-rule="nonzero"
         id="path1" />
    </clipPath>
    <clipPath
       id="5cddf980a0">
      <path
         d="m 674.50781,470.70703 h 60.65235 c 1.35546,0 2.65625,0.53906 3.61328,1.49609 0.95703,0.95704 1.49609,2.25782 1.49609,3.61329 v 48.7539 c 0,1.35156 -0.53906,2.65235 -1.49609,3.60938 -0.95703,0.95703 -2.25782,1.49609 -3.61328,1.49609 h -60.65235 c -1.35547,0 -2.65625,-0.53906 -3.61328,-1.49609 -0.95703,-0.95703 -1.49609,-2.25782 -1.49609,-3.60938 v -48.7539 c 0,-1.35547 0.53906,-2.65625 1.49609,-3.61329 0.95703,-0.95703 2.25781,-1.49609 3.61328,-1.49609 z m 0,0"
         clip-rule="nonzero"
         id="path2" />
    </clipPath>
    <clipPath
       id="59b012458b">
      <path
         d="m 675.55078,474.73437 h 50.88672 v 51.08594 h -50.88672 z m 0,0"
         clip-rule="nonzero"
         id="path3" />
    </clipPath>
    <clipPath
       id="18f64f6a86">
      <path
         d="m 700.99609,474.73437 c -14.05468,0 -25.44531,11.39844 -25.44531,25.45704 0,14.05859 11.39063,25.45703 25.44531,25.45703 14.05078,0 25.44141,-11.39844 25.44141,-25.45703 0,-14.0586 -11.39063,-25.45704 -25.44141,-25.45704 z m 0,0"
         clip-rule="nonzero"
         id="path4" />
    </clipPath>
    <clipPath
       id="f440755532-2">
      <path
         d="m 669.39844,470.70703 h 70.94922 v 58.96875 h -70.94922 z m 0,0"
         clip-rule="nonzero"
         id="path1-6" />
    </clipPath>
    <clipPath
       id="5cddf980a0-9">
      <path
         d="m 674.50781,470.70703 h 60.65235 c 1.35546,0 2.65625,0.53906 3.61328,1.49609 0.95703,0.95704 1.49609,2.25782 1.49609,3.61329 v 48.7539 c 0,1.35156 -0.53906,2.65235 -1.49609,3.60938 -0.95703,0.95703 -2.25782,1.49609 -3.61328,1.49609 h -60.65235 c -1.35547,0 -2.65625,-0.53906 -3.61328,-1.49609 -0.95703,-0.95703 -1.49609,-2.25782 -1.49609,-3.60938 v -48.7539 c 0,-1.35547 0.53906,-2.65625 1.49609,-3.61329 0.95703,-0.95703 2.25781,-1.49609 3.61328,-1.49609 z m 0,0"
         clip-rule="nonzero"
         id="path2-4" />
    </clipPath>
    <clipPath
       id="59b012458b-1">
      <path
         d="m 675.55078,474.73437 h 50.88672 v 51.08594 h -50.88672 z m 0,0"
         clip-rule="nonzero"
         id="path3-3" />
    </clipPath>
    <clipPath
       id="18f64f6a86-7">
      <path
         d="m 700.99609,474.73437 c -14.05468,0 -25.44531,11.39844 -25.44531,25.45704 0,14.05859 11.39063,25.45703 25.44531,25.45703 14.05078,0 25.44141,-11.39844 25.44141,-25.45703 0,-14.0586 -11.39063,-25.45704 -25.44141,-25.45704 z m 0,0"
         clip-rule="nonzero"
         id="path4-8" />
    </clipPath>
    <clipPath
       id="59b012458b-1-6">
      <path
         d="m 675.55078,474.73437 h 50.88672 v 51.08594 h -50.88672 z m 0,0"
         clip-rule="nonzero"
         id="path3-3-6" />
    </clipPath>
    <clipPath
       id="18f64f6a86-7-7">
      <path
         d="m 700.99609,474.73437 c -14.05468,0 -25.44531,11.39844 -25.44531,25.45704 0,14.05859 11.39063,25.45703 25.44531,25.45703 14.05078,0 25.44141,-11.39844 25.44141,-25.45703 0,-14.0586 -11.39063,-25.45704 -25.44141,-25.45704 z m 0,0"
         clip-rule="nonzero"
         id="path4-8-8" />
    </clipPath>
    <clipPath
       id="59b012458b-1-6-1">
      <path
         d="m 675.55078,474.73437 h 50.88672 v 51.08594 h -50.88672 z m 0,0"
         clip-rule="nonzero"
         id="path3-3-6-8" />
    </clipPath>
    <clipPath
       id="18f64f6a86-7-7-7">
      <path
         d="m 700.99609,474.73437 c -14.05468,0 -25.44531,11.39844 -25.44531,25.45704 0,14.05859 11.39063,25.45703 25.44531,25.45703 14.05078,0 25.44141,-11.39844 25.44141,-25.45703 0,-14.0586 -11.39063,-25.45704 -25.44141,-25.45704 z m 0,0"
         clip-rule="nonzero"
         id="path4-8-8-6" />
    </clipPath>
  </defs>
  <g
     id="g2"
     transform="matrix(2.388018,0,0,2.388018,-627.99306,-1526.6032)">
    <g
       id="g3"
       transform="matrix(0.84463067,0,0,0.84463067,68.767607,163.06889)">
      <path
         style="font-style:italic;font-size:122.958px;font-family:'Cocogoose Pro';-inkscape-font-specification:'Cocogoose Pro Italic';fill:#ffffff;fill-opacity:1;stroke-width:3.73437;stroke-linecap:round;stroke-linejoin:round"
         d="m 285.28485,653.7825 c -0.65229,1.79314 -1.87499,2.68971 -3.66813,2.68971 h -15.30571 c -1.79313,0 -3.04667,-0.89657 -3.76058,-2.68971 l -32.4349,-85.87848 c -0.25385,-0.81118 -0.24187,-1.47293 0.036,-1.98526 0.32055,-0.51232 0.90776,-0.76848 1.76163,-0.76848 h 19.40431 c 1.75045,0 2.94437,0.91791 3.58176,2.75374 l 18.60807,53.21776 17.25468,-53.21776 c 0.28345,-0.89657 0.73931,-1.57967 1.36758,-2.0493 0.67096,-0.46963 1.47607,-0.70444 2.41533,-0.70444 h 20.81321 c 0.51233,0 0.92317,0.12808 1.23252,0.38424 0.30049,0.21347 0.49063,0.51232 0.57043,0.89657 0.0798,0.38424 0.0323,0.87522 -0.14241,1.47293 l -11.78102,32.08436 8.49351,23.63099 21.34696,-55.71535 c 0.68612,-1.83583 1.94709,-2.75374 3.78292,-2.75374 h 20.10875 c 0.51233,0 0.94009,0.10673 1.28328,0.3202 0.34318,0.21347 0.55467,0.51232 0.63446,0.89657 0.0887,0.42693 0.003,0.93926 -0.2572,1.53697 l -34.80775,85.87848 c -0.69499,1.79314 -1.93904,2.68971 -3.73217,2.68971 h -15.04955 c -1.83583,0 -3.11071,-0.89657 -3.82462,-2.68971 l -9.14722,-23.69503 z m 68.49426,-42.97126 c -0.16457,-9.22185 1.80928,-17.3977 5.92156,-24.52756 4.15498,-7.12985 9.81651,-12.65869 16.98458,-16.58652 7.16808,-3.92783 15.06419,-5.89174 23.68832,-5.89174 7.5141,0 14.537,1.64371 21.06872,4.93113 6.53172,3.28742 12.00146,7.8343 16.40925,13.64065 4.44162,5.76366 7.40715,12.23176 8.89661,19.40431 0.63834,3.07395 0.98588,6.08386 1.0426,9.02973 0.12912,9.05107 -1.86247,17.14154 -5.97476,24.2714 -4.11229,7.12985 -9.7436,12.70139 -16.89394,16.7146 -7.15921,3.97052 -15.07223,5.95578 -23.73906,5.95578 -7.42871,0 -14.43027,-1.64371 -21.00467,-4.93113 -6.53172,-3.28742 -12.0353,-7.79161 -16.51074,-13.51257 -4.44162,-5.76365 -7.40272,-12.21041 -8.88332,-19.34027 -0.65607,-3.15934 -0.99112,-6.21194 -1.00515,-9.15781 z m 23.63099,0 c 0.0164,2.13469 0.18856,3.99187 0.51659,5.57154 0.74473,3.58627 2.18259,6.80965 4.31357,9.67013 2.13099,2.86048 4.77382,5.1019 7.92852,6.72427 3.19739,1.62236 6.69595,2.43354 10.49569,2.43354 4.44015,0 8.44076,-1.08869 12.00181,-3.26607 3.56105,-2.17738 6.36481,-5.12325 8.41127,-8.83761 2.04646,-3.71435 3.07386,-7.81295 3.08221,-12.2958 -0.0163,-2.13469 -0.19298,-4.01321 -0.52988,-5.63557 -0.74473,-3.58628 -2.17816,-6.78831 -4.30029,-9.6061 -2.13098,-2.86048 -4.79516,-5.1019 -7.99255,-6.72426 -3.15469,-1.62237 -6.6319,-2.43355 -10.43165,-2.43355 -4.44015,0 -8.44075,1.08869 -12.0018,3.26608 -3.56105,2.17738 -6.36481,5.12325 -8.41127,8.8376 -2.04646,3.71436 -3.07386,7.81296 -3.08222,12.2958 z m 76.99802,-42.90722 c 0.003,-1.83583 0.92244,-2.75374 2.75827,-2.75374 h 58.53313 c 1.45159,0 2.30594,0.61906 2.56305,1.85717 0.0355,0.17078 0.0548,0.46964 0.0581,0.89657 l -0.0586,15.754 c -0.0119,1.79313 -0.9144,2.6897 -2.70754,2.6897 h -37.46376 l -0.0981,18.95603 h 27.47343 c 1.49428,0 2.36997,0.61906 2.62708,1.85718 0.0355,0.17077 0.0548,0.46963 0.0581,0.89656 l -0.0394,14.92147 c -0.0119,1.79314 -0.91439,2.68971 -2.70752,2.68971 h -27.47343 l -0.18166,28.11383 c -0.0119,1.79314 -0.89304,2.68971 -2.64348,2.68971 h -18.37966 c -1.53697,0 -2.43402,-0.61906 -2.69113,-1.85718 -0.0266,-0.12808 -0.0415,-0.40559 -0.0448,-0.83253 z m 69.84332,-0.21479 c 0.0119,-1.79314 0.83481,-2.68971 2.77157,-2.68971 h 16.45845 c 1.57119,0 2.36536,0.59767 2.61378,1.79314 0.0355,0.17078 0.0548,0.46963 0.0581,0.89657 l 0.26145,53.94488 c -0.0119,1.79313 -0.91438,2.6897 -2.70752,2.6897 h -16.45844 c -1.53697,0 -2.43402,-0.61906 -2.69113,-1.85717 -0.0266,-0.12809 -0.0415,-0.4056 -0.0448,-0.83253 z"
         id="text20"
         aria-label="WOF!" />
      <g
         clip-path="url(#59b012458b-1-6)"
         id="g20-1-1"
         transform="matrix(0.43096152,0,0,0.43096152,233.34818,429.97428)"
         style="fill:#fdb61b;fill-opacity:1">
        <g
           clip-path="url(#18f64f6a86-7-7)"
           id="g19-8-7"
           style="fill:#fdb61b;fill-opacity:1">
          <path
             fill="#fdb61b"
             d="m 675.55078,474.73437 h 50.88672 v 50.88672 h -50.88672 z m 0,0"
             fill-opacity="1"
             fill-rule="nonzero"
             id="path18-8-1"
             style="fill:#fdb61b;fill-opacity:1" />
        </g>
      </g>
    </g>
  </g>
</svg>
