<svg width="65" height="18" viewBox="0 0 65 18" fill="none" xmlns="http://www.w3.org/2000/svg">
<path d="M64.9134 0.238632L64.4703 12.2386H60.5839L60.1407 0.238632H64.9134ZM62.5271 17.9659C61.868 17.9659 61.3027 17.7358 60.8311 17.2756C60.3652 16.8097 60.135 16.2443 60.1407 15.5795C60.135 14.9318 60.3652 14.3778 60.8311 13.9176C61.3027 13.4574 61.868 13.2273 62.5271 13.2273C63.1521 13.2273 63.7032 13.4574 64.1805 13.9176C64.6634 14.3778 64.9078 14.9318 64.9134 15.5795C64.9078 16.0227 64.7913 16.4261 64.564 16.7898C64.3424 17.1477 64.0527 17.4347 63.6947 17.6506C63.3367 17.8608 62.9475 17.9659 62.5271 17.9659Z" fill="white"/>
<path d="M45.3751 17.6932V0.238632H57.6478V4.05681H50.1137V7.05681H56.8978V10.875H50.1137V17.6932H45.3751Z" fill="white"/>
<path d="M43.1826 8.96591C43.1826 10.9091 42.8048 12.5483 42.0491 13.8835C41.2934 15.2131 40.2735 16.2216 38.9894 16.9091C37.7053 17.5909 36.2735 17.9318 34.694 17.9318C33.1031 17.9318 31.6656 17.5881 30.3815 16.9006C29.1031 16.2074 28.086 15.196 27.3303 13.8665C26.5803 12.5313 26.2053 10.8977 26.2053 8.96591C26.2053 7.02273 26.5803 5.38636 27.3303 4.05682C28.086 2.72159 29.1031 1.71307 30.3815 1.03125C31.6656 0.34375 33.1031 0 34.694 0C36.2735 0 37.7053 0.34375 38.9894 1.03125C40.2735 1.71307 41.2934 2.72159 42.0491 4.05682C42.8048 5.38636 43.1826 7.02273 43.1826 8.96591ZM38.3076 8.96591C38.3076 7.92046 38.1684 7.03977 37.89 6.32386C37.6173 5.60227 37.211 5.05682 36.6713 4.6875C36.1372 4.3125 35.4781 4.125 34.694 4.125C33.9099 4.125 33.248 4.3125 32.7082 4.6875C32.1741 5.05682 31.7678 5.60227 31.4894 6.32386C31.2167 7.03977 31.0803 7.92046 31.0803 8.96591C31.0803 10.0114 31.2167 10.8949 31.4894 11.6165C31.7678 12.3324 32.1741 12.8778 32.7082 13.2528C33.248 13.6222 33.9099 13.8068 34.694 13.8068C35.4781 13.8068 36.1372 13.6222 36.6713 13.2528C37.211 12.8778 37.6173 12.3324 37.89 11.6165C38.1684 10.8949 38.3076 10.0114 38.3076 8.96591Z" fill="white"/>
<path d="M5.55691 17.6932L0.40918 0.238632H5.69327L8.07963 10.9773H8.216L11.0455 0.238632H15.2046L18.0342 11.0114H18.1705L20.5569 0.238632H25.841L20.6933 17.6932H16.1592L13.1933 7.94318H13.0569L10.091 17.6932H5.55691Z" fill="white"/>
</svg>
